<svg xmlns="http://www.w3.org/2000/svg" xmlns:xlink="http://www.w3.org/1999/xlink" width="42.601" height="49.051" viewBox="0 0 42.601 49.051">
  <defs>
    <filter id="패스_414" x="0" y="0" width="42.601" height="49.051" filterUnits="userSpaceOnUse">
      <feOffset dy="3" input="SourceAlpha"/>
      <feGaussianBlur stdDeviation="3" result="blur"/>
      <feFlood flood-opacity="0.161"/>
      <feComposite operator="in" in2="blur"/>
      <feComposite in="SourceGraphic"/>
    </filter>
    <linearGradient id="linear-gradient" x1="0.628" y1="0.54" x2="-0.934" y2="0.878" gradientUnits="objectBoundingBox">
      <stop offset="0" stop-color="#ed7600"/>
      <stop offset="0.192" stop-color="#e57200"/>
      <stop offset="1" stop-color="#552b01"/>
    </linearGradient>
    <linearGradient id="linear-gradient-2" x1="0.36" y1="0.5" x2="2.138" y2="1" gradientUnits="objectBoundingBox">
      <stop offset="0" stop-color="#e0002c"/>
      <stop offset="1" stop-color="#43000d"/>
    </linearGradient>
  </defs>
  <g id="그룹_3322" data-name="그룹 3322" transform="translate(-41 -44)">
    <g transform="matrix(1, 0, 0, 1, 41, 44)" filter="url(#패스_414)">
      <path id="패스_414-2" data-name="패스 414" d="M24.57,9.789c-.018-1.2-.036-2.453-.036-3.761a.459.459,0,0,0-.3-.427A78.362,78.362,0,0,1,16.84,2.172C15.433,1.46,13.982.724,12.505.045a.488.488,0,0,0-.412,0C10.608.72,9.162,1.461,7.757,2.175A78.586,78.586,0,0,1,.37,5.6a.459.459,0,0,0-.3.427c0,1.307-.019,2.565-.036,3.76-.154,10.206-.255,16.942,12.1,21.234a.484.484,0,0,0,.163.028.47.47,0,0,0,.162-.028C24.821,26.73,24.72,19.994,24.57,9.789" transform="translate(9 6)" fill="#364967"/>
    </g>
    <path id="패스_390" data-name="패스 390" d="M1.98,11.105c.015-1.053.034-2.146.034-3.283C4.441,6.866,6.654,5.737,8.8,4.646c1.256-.641,2.553-1.3,3.865-1.91v27.6h0C1.749,26.487,1.835,20.686,1.98,11.105" transform="translate(49.776 48.989)" fill="url(#linear-gradient)"/>
    <path id="패스_391" data-name="패스 391" d="M9.113,30.337h0V2.736c1.312.609,2.609,1.269,3.863,1.91,2.145,1.091,4.357,2.22,6.785,3.176,0,1.137.018,2.23.034,3.283.144,9.58.232,15.382-10.681,19.232" transform="translate(53.326 48.989)" fill="url(#linear-gradient-2)"/>
    <rect id="사각형_207" data-name="사각형 207" width="24.601" height="31.05" transform="translate(50 50)" fill="none"/>
  </g>
</svg>
