<svg id="그룹_3109" data-name="그룹 3109" xmlns="http://www.w3.org/2000/svg" xmlns:xlink="http://www.w3.org/1999/xlink" width="16.833" height="22" viewBox="0 0 16.833 22">
  <defs>
    <clipPath id="clip-path">
      <rect id="사각형_179" data-name="사각형 179" width="16.833" height="22" fill="none" stroke="#707070" stroke-width="1.2"/>
    </clipPath>
  </defs>
  <g id="그룹_3108" data-name="그룹 3108" clip-path="url(#clip-path)">
    <path id="패스_301" data-name="패스 301" d="M15.166,1.5A1.667,1.667,0,0,0,13.5,3.167V7.833a1.667,1.667,0,1,0,3.333,0V3.167A1.666,1.666,0,0,0,15.166,1.5Z" transform="translate(-6.75 -0.75)" fill="none" stroke="#fff" stroke-linecap="round" stroke-linejoin="round" stroke-width="1.2"/>
    <path id="패스_302" data-name="패스 302" d="M7.5,8.833H4a2.5,2.5,0,0,0-2.5,2.5V23.167a2.5,2.5,0,0,0,2.5,2.5H14.334a2.5,2.5,0,0,0,2.5-2.5V11.333a2.5,2.5,0,0,0-2.5-2.5h-3.5" transform="translate(-0.75 -4.417)" fill="none" stroke="#fff" stroke-linecap="round" stroke-linejoin="round" stroke-width="1.2"/>
    <line id="선_64" data-name="선 64" x2="7.333" transform="translate(4.75 15.583)" fill="none" stroke="#fff" stroke-linecap="round" stroke-linejoin="round" stroke-width="1.2"/>
  </g>
</svg>
